<svg xmlns="http://www.w3.org/2000/svg" style="display: none;">
  <symbol id="icon-close" viewBox="0 0 48 48">
    <path d="M29.5996 17.925C29.7639 17.925 29.8659 17.9735 29.9463 18.0539C30.0265 18.1342 30.0751 18.2357 30.0752 18.3996C30.0752 18.5638 30.0266 18.6659 29.9463 18.7463L24.6924 24.0002L25.0459 24.3537L29.9463 29.2531C30.0267 29.3335 30.0752 29.4356 30.0752 29.5998C30.0752 29.7641 30.0267 29.8661 29.9463 29.9465C29.8659 30.0269 29.7639 30.0754 29.5996 30.0754C29.4355 30.0753 29.3333 30.0268 29.2529 29.9465L24.3535 25.0461L24 24.6926L18.7461 29.9465C18.6657 30.0268 18.5636 30.0754 18.3994 30.0754C18.2355 30.0753 18.134 30.0267 18.0537 29.9465C17.9733 29.8661 17.9248 29.7641 17.9248 29.5998C17.9248 29.4356 17.9733 29.3335 18.0537 29.2531L23.3066 24.0002L22.9531 23.6467L18.0537 18.7463C17.9733 18.6659 17.9248 18.5639 17.9248 18.3996C17.9249 18.2356 17.9734 18.1342 18.0537 18.0539C18.134 17.9736 18.2354 17.9251 18.3994 17.925C18.5637 17.925 18.6657 17.9735 18.7461 18.0539L23.6465 22.9533L24 23.3068L29.2529 18.0539C29.3333 17.9735 29.4355 17.925 29.5996 17.925Z" fill="currentColor" stroke="currentColor"/>
  </symbol>

  <symbol id="icon-menu" viewBox="0 0 48 48">
    <path d="M15.7021 28.5366H32.2979C32.532 28.5366 32.7288 28.6171 32.8896 28.7768C33.0502 28.9363 33.1308 29.1326 33.1309 29.3676C33.1309 29.6069 33.05 29.8039 32.8896 29.9604C32.7289 30.1173 32.5321 30.1967 32.2979 30.1967H15.7021C15.4681 30.1967 15.273 30.116 15.1143 29.9565C14.9555 29.797 14.876 29.5983 14.876 29.3588C14.8761 29.1237 14.9548 28.9285 15.1133 28.7719C15.272 28.6153 15.468 28.5366 15.7021 28.5366ZM15.7021 23.1733H32.2979C32.5319 23.1733 32.7288 23.2528 32.8896 23.4125C33.0504 23.5721 33.1308 23.7691 33.1309 24.0043C33.1309 24.2394 33.0502 24.4345 32.8896 24.5912C32.7289 24.7482 32.5321 24.8266 32.2979 24.8266H15.7021C15.4683 24.8266 15.2729 24.7468 15.1143 24.5873C14.9555 24.4277 14.876 24.2309 14.876 23.9955C14.876 23.7605 14.9548 23.5653 15.1133 23.4086C15.272 23.2519 15.468 23.1733 15.7021 23.1733ZM15.7021 17.8041H32.2979C32.532 17.8041 32.7288 17.8837 32.8896 18.0434C33.0503 18.203 33.1309 18.4 33.1309 18.6352C33.1308 18.8744 33.0501 19.0714 32.8896 19.228C32.7289 19.3847 32.5321 19.4633 32.2979 19.4633H15.7021C15.4683 19.4633 15.2729 19.3833 15.1143 19.2241C14.9556 19.0646 14.8761 18.8657 14.876 18.6264C14.876 18.3912 14.9549 18.196 15.1133 18.0395C15.272 17.8827 15.468 17.8042 15.7021 17.8041Z" fill="currentColor" stroke="currentColor" stroke-width="0.05"/>
  </symbol>

  <symbol id="icon-logo" viewBox="0 0 145 41">
    <path d="M78.8734 35.3097V34.222L80.2804 33.9803V27.3076L78.8734 27.0659V25.9696H81.9723H83.3794V27.0659L81.9723 27.3076V32.5819L82.0241 32.5991L86.1417 25.9696H87.8423H89.2494V27.0659L87.8423 27.3076V33.9803L89.2494 34.222V35.3097H84.7347V34.222L86.1417 33.9803V28.6974L86.0899 28.6801L81.9723 35.3097H78.8734ZM84.1131 24.3294C83.2787 24.3294 82.6226 24.105 82.145 23.6561C81.6673 23.2015 81.4285 22.6145 81.4285 21.8951L81.4458 21.8433H82.7406C82.7406 22.2577 82.85 22.5943 83.0686 22.8533C83.2931 23.1123 83.6412 23.2418 84.1131 23.2418C84.5735 23.2418 84.916 23.1123 85.1404 22.8533C85.3648 22.5943 85.4771 22.2577 85.4771 21.8433H86.7805L86.7978 21.8951C86.792 22.6145 86.5503 23.2015 86.0727 23.6561C85.6008 24.105 84.9476 24.3294 84.1131 24.3294Z" fill="white"/>
    <path d="M73.957 35.491C73.0938 35.491 72.3428 35.2953 71.704 34.904C71.0652 34.5069 70.5703 33.9573 70.2192 33.2552C69.8739 32.5531 69.7013 31.7417 69.7013 30.8209V30.4411C69.7013 29.5548 69.8826 28.7635 70.2451 28.0672C70.6134 27.3651 71.0997 26.8126 71.704 26.4098C72.314 26.0012 72.9787 25.7969 73.698 25.7969C74.5382 25.7969 75.2403 25.9696 75.8043 26.3148C76.374 26.6601 76.8028 27.1464 77.0905 27.7737C77.3783 28.3952 77.5221 29.129 77.5221 29.9749V31.0367H71.4623L71.4364 31.0799C71.4479 31.6784 71.5515 32.2107 71.7471 32.6768C71.9486 33.1372 72.2363 33.4998 72.6104 33.7645C72.9844 34.0292 73.4333 34.1616 73.957 34.1616C74.5325 34.1616 75.036 34.081 75.4677 33.9199C75.905 33.753 76.282 33.5257 76.5985 33.2379L77.2632 34.3429C76.9294 34.6651 76.4863 34.9385 75.9338 35.1629C75.3871 35.3816 74.7282 35.491 73.957 35.491ZM71.5141 29.7073H75.8216V29.4829C75.8216 29.034 75.741 28.634 75.5799 28.283C75.4245 27.9262 75.1885 27.6471 74.872 27.4457C74.5613 27.2385 74.1699 27.1349 73.698 27.1349C73.3182 27.1349 72.9729 27.2471 72.6622 27.4716C72.3514 27.6903 72.0953 27.9895 71.8939 28.3693C71.6925 28.7491 71.5601 29.1808 71.4968 29.6642L71.5141 29.7073Z" fill="white"/>
    <path d="M63.8177 35.3096V34.222L65.2248 33.9803V31.9776C64.891 32.0639 64.5515 32.1272 64.2062 32.1675C63.8609 32.2078 63.4955 32.2279 63.1099 32.2279C62.3618 32.2279 61.7172 32.0956 61.1763 31.8308C60.6353 31.5661 60.221 31.1719 59.9332 30.6482C59.6455 30.1245 59.5016 29.4771 59.5016 28.7059V27.2902L58.0945 27.0485V25.9609H61.2022H62.6092V27.0485L61.2022 27.2902V28.7059C61.2022 29.2009 61.2712 29.6095 61.4093 29.9317C61.5532 30.254 61.7661 30.4928 62.0481 30.6482C62.3359 30.8036 62.6898 30.8813 63.1099 30.8813C63.4897 30.8813 63.8523 30.8611 64.1976 30.8209C64.5429 30.7748 64.8853 30.7086 65.2248 30.6223V27.3075L63.8177 27.0658V25.9695H68.3324V27.0658L66.9254 27.3075V33.9803L68.3324 34.222V35.3096H63.8177Z" fill="white"/>
    <path d="M53.4545 35.491C52.5913 35.491 51.8403 35.2953 51.2015 34.904C50.5627 34.5069 50.0678 33.9573 49.7167 33.2552C49.3714 32.5531 49.1988 31.7417 49.1988 30.8209V30.4411C49.1988 29.5548 49.3801 28.7635 49.7426 28.0672C50.1109 27.3651 50.5972 26.8126 51.2015 26.4098C51.8115 26.0012 52.4762 25.7969 53.1955 25.7969C54.0357 25.7969 54.7378 25.9696 55.3018 26.3148C55.8715 26.6601 56.3003 27.1464 56.588 27.7737C56.8758 28.3952 57.0196 29.129 57.0196 29.9749V31.0367H50.9598L50.9339 31.0799C50.9454 31.6784 51.049 32.2107 51.2446 32.6768C51.4461 33.1372 51.7338 33.4998 52.1079 33.7645C52.4819 34.0292 52.9308 34.1616 53.4545 34.1616C54.03 34.1616 54.5335 34.081 54.9652 33.9199C55.4025 33.753 55.7795 33.5257 56.096 33.2379L56.7607 34.3429C56.4269 34.6651 55.9838 34.9385 55.4313 35.1629C54.8846 35.3816 54.2257 35.491 53.4545 35.491ZM51.0116 29.7073H55.3191V29.4829C55.3191 29.034 55.2385 28.634 55.0774 28.283C54.922 27.9262 54.686 27.6471 54.3695 27.4457C54.0588 27.2385 53.6674 27.1349 53.1955 27.1349C52.8157 27.1349 52.4704 27.2471 52.1597 27.4716C51.8489 27.6903 51.5928 27.9895 51.3914 28.3693C51.19 28.7491 51.0576 29.1808 50.9943 29.6642L51.0116 29.7073Z" fill="white"/>
    <path d="M37.5241 35.3097V34.222L38.9312 33.9803V27.3076L37.5241 27.0659V25.9696H47.9001V27.0659L46.4931 27.3076V33.9803L47.9001 34.222V35.3097H43.3854V34.222L44.7925 33.9803V27.3162H40.6317V33.9803L42.0388 34.222V35.3097H37.5241Z" fill="white"/>
    <path d="M125.436 20.3229V19.2352L126.662 19.0539L128.259 16.447C127.666 16.234 127.209 15.8974 126.886 15.437C126.57 14.9766 126.412 14.4443 126.412 13.84C126.412 13.276 126.556 12.7811 126.843 12.3553C127.131 11.9236 127.542 11.587 128.078 11.3453C128.619 11.1036 129.257 10.9827 129.994 10.9827H135.346V12.079L133.939 12.3207V18.9935L135.346 19.2352V20.3229H130.831V19.2352L132.238 18.9935V16.6973H129.934L127.724 20.3229H125.436ZM129.821 15.3593H132.238V12.3035H129.994C129.378 12.3035 128.912 12.4588 128.596 12.7696C128.279 13.0746 128.121 13.4372 128.121 13.8573C128.121 14.2716 128.262 14.6256 128.544 14.919C128.832 15.2125 129.257 15.3593 129.821 15.3593Z" fill="white"/>
    <path d="M113.839 20.3229V19.2352L115.246 18.9935V12.3207L113.839 12.079V10.9827H118.354V12.079L116.947 12.3207V15.0226H121.099V12.3207L119.692 12.079V10.9827H121.099H122.808H124.215V12.079L122.808 12.3207V18.9935L124.215 19.2352V20.3229H119.692V19.2352L121.099 18.9935V16.352H116.947V18.9935L118.354 19.2352V20.3229H113.839Z" fill="white"/>
    <path d="M102.855 23.9139V22.8176L104.176 22.5759V12.3207L102.769 12.079V10.9827H105.635L105.79 12.1222C106.101 11.6963 106.478 11.3712 106.921 11.1467C107.37 10.9223 107.888 10.8101 108.475 10.8101C109.246 10.8101 109.905 11.0201 110.451 11.4402C110.998 11.8546 111.415 12.4387 111.703 13.1926C111.991 13.9407 112.135 14.8183 112.135 15.8254V16.0067C112.135 16.9044 111.988 17.69 111.695 18.3633C111.407 19.0366 110.992 19.5632 110.451 19.943C109.911 20.3171 109.26 20.5041 108.501 20.5041C107.925 20.5041 107.419 20.4092 106.981 20.2192C106.55 20.0236 106.181 19.7358 105.876 19.356V22.5759L107.361 22.8176V23.9139H102.855ZM107.974 19.1747C108.78 19.1747 109.39 18.8812 109.804 18.2942C110.218 17.7073 110.426 16.9447 110.426 16.0067V15.8254C110.426 15.1118 110.333 14.4845 110.149 13.9436C109.965 13.3969 109.689 12.9681 109.321 12.6574C108.958 12.3466 108.503 12.1912 107.957 12.1912C107.473 12.1912 107.059 12.3006 106.714 12.5193C106.368 12.7379 106.089 13.0372 105.876 13.417V17.9662C106.089 18.3518 106.366 18.651 106.705 18.864C107.05 19.0712 107.473 19.1747 107.974 19.1747Z" fill="white"/>
    <path d="M98.3953 20.5041C97.5321 20.5041 96.7811 20.3084 96.1423 19.9171C95.5035 19.52 95.0086 18.9704 94.6575 18.2684C94.3122 17.5663 94.1396 16.7548 94.1396 15.834V15.4542C94.1396 14.568 94.3209 13.7767 94.6834 13.0803C95.0517 12.3783 95.538 11.8258 96.1423 11.423C96.7523 11.0144 97.417 10.8101 98.1363 10.8101C98.9765 10.8101 99.6786 10.9827 100.243 11.328C100.812 11.6733 101.241 12.1596 101.529 12.7869C101.817 13.4084 101.96 14.1421 101.96 14.9881V16.0499H95.9006L95.8747 16.093C95.8862 16.6915 95.9898 17.2238 96.1854 17.69C96.3869 18.1504 96.6746 18.5129 97.0487 18.7777C97.4227 19.0424 97.8716 19.1747 98.3953 19.1747C98.9708 19.1747 99.4743 19.0942 99.906 18.933C100.343 18.7661 100.72 18.5388 101.037 18.2511L101.701 19.356C101.368 19.6783 100.925 19.9516 100.372 20.1761C99.8254 20.3948 99.1665 20.5041 98.3953 20.5041ZM95.9524 14.7205H100.26V14.496C100.26 14.0472 100.179 13.6472 100.018 13.2962C99.8628 12.9394 99.6268 12.6602 99.3103 12.4588C98.9996 12.2517 98.6082 12.1481 98.1363 12.1481C97.7565 12.1481 97.4112 12.2603 97.1005 12.4847C96.7897 12.7034 96.5336 13.0027 96.3322 13.3825C96.1308 13.7623 95.9984 14.1939 95.9351 14.6773L95.9524 14.7205Z" fill="white"/>
    <path d="M86.9435 20.3229V19.2352L88.3506 18.9935V12.3035H86.3824L86.253 13.7623H84.8027V10.9827H93.6422V13.7623H92.1833L92.0539 12.3035H90.0512V18.9935L91.4582 19.2352V20.3229H86.9435Z" fill="white"/>
    <path d="M79.9467 20.5041C79.1007 20.5041 78.3641 20.3084 77.7368 19.9171C77.1095 19.52 76.6232 18.9704 76.2779 18.2684C75.9327 17.5663 75.76 16.7548 75.76 15.834V15.4715C75.76 14.5852 75.9269 13.7911 76.2607 13.089C76.5945 12.3869 77.075 11.8315 77.7023 11.423C78.3296 11.0144 79.0777 10.8101 79.9467 10.8101C80.7006 10.8101 81.3595 10.9338 81.9235 11.1812C82.4932 11.4287 82.9708 11.7682 83.3564 12.1999L83.3996 14.4442H82.0702L81.7767 12.8127C81.581 12.6113 81.3365 12.4502 81.043 12.3293C80.7495 12.2085 80.4042 12.1481 80.0071 12.1481C79.5007 12.1481 79.0547 12.2977 78.6691 12.5969C78.2893 12.8962 77.9929 13.2962 77.78 13.7968C77.567 14.2975 77.4606 14.8557 77.4606 15.4715V15.834C77.4606 16.5131 77.5584 17.103 77.7541 17.6037C77.9555 18.1043 78.2404 18.4928 78.6087 18.769C78.9827 19.0395 79.4259 19.1747 79.938 19.1747C80.5135 19.1747 80.9912 19.0165 81.371 18.7C81.7508 18.3834 81.9839 17.949 82.0702 17.3965H83.5981L83.6154 17.4483C83.5866 17.9835 83.4284 18.4842 83.1406 18.9503C82.8529 19.4164 82.4414 19.7934 81.9062 20.0811C81.3767 20.3631 80.7236 20.5041 79.9467 20.5041Z" fill="white"/>
    <path d="M64.0514 20.3228V19.2352L65.4585 18.9935V12.3207L64.0514 12.079V10.9827H67.1504H68.5574V12.079L67.1504 12.3207V17.595L67.2022 17.6123L71.3198 10.9827H73.0203H74.4274V12.079L73.0203 12.3207V18.9935L74.4274 19.2352V20.3228H69.9127V19.2352L71.3198 18.9935V13.7105L71.268 13.6932L67.1504 20.3228H64.0514ZM69.2912 9.34257C68.4567 9.34257 67.8007 9.11813 67.323 8.66926C66.8454 8.21462 66.6065 7.62763 66.6065 6.90827L66.6238 6.85648H67.9187C67.9187 7.27083 68.028 7.60748 68.2467 7.86645C68.4711 8.12542 68.8193 8.25491 69.2912 8.25491C69.7516 8.25491 70.094 8.12542 70.3184 7.86645C70.5429 7.60748 70.6551 7.27083 70.6551 6.85648H71.9586L71.9758 6.90827C71.9701 7.62763 71.7284 8.21462 71.2507 8.66926C70.7788 9.11813 70.1256 9.34257 69.2912 9.34257Z" fill="white"/>
    <path d="M57.2791 20.5041C56.3065 20.5041 55.567 20.2682 55.0606 19.7963C54.5542 19.3186 54.301 18.6482 54.301 17.7849C54.301 16.8987 54.6635 16.188 55.3886 15.6528C56.1137 15.1118 57.1208 14.8413 58.4099 14.8413H60.076V13.9263C60.076 13.3623 59.9033 12.925 59.558 12.6142C59.2185 12.3034 58.738 12.1481 58.1164 12.1481C57.7251 12.1481 57.3856 12.197 57.0978 12.2948C56.8101 12.3869 56.5482 12.5164 56.3123 12.6833L56.131 13.9867H54.8189V11.8459C55.239 11.5064 55.7282 11.2503 56.2864 11.0777C56.8446 10.8993 57.4633 10.8101 58.1423 10.8101C59.276 10.8101 60.1652 11.0805 60.8097 11.6215C61.4542 12.1624 61.7765 12.9365 61.7765 13.9436V18.441C61.7765 18.5618 61.7765 18.6798 61.7765 18.7949C61.7823 18.91 61.7909 19.0251 61.8024 19.1402L62.7088 19.2352V20.3228H60.2659C60.2141 20.0696 60.1738 19.8423 60.145 19.6409C60.1162 19.4395 60.0961 19.238 60.0846 19.0366C59.7566 19.4567 59.3451 19.8078 58.8502 20.0898C58.361 20.366 57.8373 20.5041 57.2791 20.5041ZM57.5294 19.0798C58.0934 19.0798 58.6085 18.9445 59.0746 18.6741C59.5408 18.4036 59.8745 18.0784 60.076 17.6986V16.0067H58.3495C57.5668 16.0067 56.9798 16.1937 56.5885 16.5678C56.1972 16.9419 56.0015 17.3591 56.0015 17.8195C56.0015 18.2281 56.1281 18.5417 56.3813 18.7604C56.6346 18.9733 57.0173 19.0798 57.5294 19.0798Z" fill="white"/>
    <path d="M37.4983 20.3228V19.2351L38.9054 18.9934V9.09222L37.4983 8.85051V7.75421H38.9054H41.1756L45.2242 17.2929H45.276L49.195 7.75421H52.9846V8.85051L51.5775 9.09222V18.9934L52.9846 19.2351V20.3228H48.4699V19.2351L49.9547 18.9934V15.3506V10.0763L49.9115 10.0677L45.8284 19.8739H44.6976L40.4764 10.0849L40.4333 10.0936L40.4937 15.3506V18.9934L42.013 19.2351V20.3228H37.4983Z" fill="white"/>
    <path d="M5.19991 12.9759C5.90552 14.2575 6.63409 15.8461 7.19506 17.7205C7.56317 18.9505 7.79658 20.0961 7.94276 21.1222C9.19939 19.8908 10.6948 18.103 11.7838 15.706C14.6208 9.45947 12.6203 3.64354 11.8833 1.78571C13.5471 2.48351 16.1201 3.8173 18.3678 6.26167C22.7736 11.0563 22.6902 16.603 22.6068 18.1676C23.1785 17.5858 23.9009 16.7253 24.5017 15.5721C25.1706 14.2864 25.4361 13.1202 25.5486 12.3042C30.4573 18.5117 31.019 26.081 27.0953 31.1477C26.6759 31.6889 22.1568 37.3297 15.0754 36.877C10.3076 36.5728 7.33512 33.695 6.84608 33.2067C4.18894 30.5542 3.27362 26.9856 3.65398 24.1209C3.98918 21.5975 5.19225 20.6648 5.45016 17.228C5.58256 15.4485 5.38971 13.967 5.19991 12.9759Z" fill="#F01E01"/>
    <path d="M15.8737 8.85782C16.0252 11.84 15.3678 13.9821 14.7762 15.3482C13.2089 18.9656 10.776 20.2067 9.34028 24.2102C8.67982 26.0508 8.52676 27.6497 8.49155 28.6415C8.34232 28.1964 8.09972 27.6319 7.69411 27.0302C7.17906 26.2665 6.59511 25.7259 6.14818 25.3743C6.05328 26.7562 6.05941 29.8716 8.14258 32.8042C8.75482 33.6655 9.76043 35.0446 11.7342 35.9821C12.9426 36.5563 14.0737 36.7555 14.8267 36.8324C17.1563 36.8324 19.0413 36.4732 19.564 36.34C21.6992 35.796 23.0538 33.4272 23.8528 32.0302C26.1961 27.9299 26.3171 23.7575 26.0974 21.1222C25.8242 22.1442 25.3834 23.3949 24.651 24.7479C24.0724 25.818 23.4395 26.7122 22.8563 27.4334C22.6773 26.5934 22.3413 25.3688 21.6586 23.9869C20.614 21.8702 19.8058 21.5089 18.866 19.6895C18.0854 18.1799 18.2408 17.6518 17.4693 14.408C17.1609 13.1112 16.6597 11.1937 15.8737 8.85782Z" fill="#F35B00"/>
    <path d="M11.6346 23.6731C11.6209 24.3681 11.5543 25.4018 11.2849 26.627C10.8402 28.6504 10.3321 28.9705 10.088 30.3867C9.94714 31.2047 9.48872 33.8688 11.2849 35.5343C12.6234 36.7754 14.5428 36.886 15.5737 36.9217C16.4255 36.9512 18.7122 36.9856 20.3124 35.7136C22.8555 33.6923 22.3336 29.3221 20.8604 26.6724C19.9497 25.0323 19.1155 24.8475 18.0173 22.7335C17.0767 20.9203 16.7484 19.2438 16.6214 18.0783C16.3688 18.7452 16.003 19.8942 15.9234 21.3455C15.7704 24.1353 16.8127 25.5082 16.0229 27.4334C15.7635 28.0652 15.2423 28.9121 14.0775 29.7603C14.1035 29.0872 14.0538 28.1648 13.7285 27.1195C13.2089 25.4492 12.2453 24.2953 11.6346 23.6731Z" fill="#FDB800"/>
  </symbol>
</svg>
